<svg id="logo-svg" height="30" viewBox="0 0 283 55" fill="none" xmlns="http://www.w3.org/2000/svg">
<g clip-path="url(#clip0_164_38)">
<path fill-rule="evenodd" clip-rule="evenodd" d="M14.0505 45.2248C14.4508 45.991 15.0613 46.596 15.8819 47.0396C16.7025 47.4832 17.6132 47.705 18.6139 47.705C21.0558 47.705 22.8271 46.3842 23.9279 43.7427C25.0288 41.1011 25.5792 37.8042 25.5792 33.8519C25.5792 30.6659 24.8686 27.9437 23.4476 25.6853C22.0265 23.4268 20.1151 22.2976 17.7133 22.2976C16.2722 22.2976 15.0513 22.4993 14.0505 22.9025V45.2248ZM0 8.56549V4.4519L12.3692 3.06055L14.0505 3.5445V19.0309C16.1721 17.7807 18.734 17.1556 21.7363 17.1556C26.2597 17.1556 29.7722 18.5974 32.2741 21.4809C34.776 24.3645 36.0269 28.3066 36.0269 33.3075C36.0269 36.7758 35.2163 39.9315 33.5951 42.7747C31.9739 45.618 29.7523 47.8663 26.9301 49.5198C24.108 51.1733 20.9757 52.0001 17.5331 52.0001C14.9712 52.0001 12.2892 51.748 9.48709 51.2439C6.68498 50.7398 4.74355 50.1651 3.66274 49.5198V10.2593L0 8.56549Z" fill="#111111"/>
<path fill-rule="evenodd" clip-rule="evenodd" d="M44.6734 46.374V26.9555L40.7104 24.1123V20.4222L51.5786 17.1555L53.6801 17.7V23.4469C53.9604 22.358 54.5708 21.3296 55.5115 20.3617C56.4522 19.3938 57.523 18.6175 58.7239 18.0327C59.9248 17.4479 61.0456 17.1555 62.0864 17.1555C63.7277 17.1555 64.7884 17.2765 65.2688 17.5185V26.8345C64.8285 26.3909 64.0779 26.0481 63.0171 25.8061C61.9563 25.5642 61.0457 25.4432 60.2851 25.4432C59.1642 25.4432 58.1135 25.5541 57.1327 25.7759C56.152 25.9977 55.4615 26.2498 55.0612 26.5321V46.1321L61.9063 47.1605V51.153H41.0707V47.1605L44.6734 46.374Z" fill="#111111"/>
<path fill-rule="evenodd" clip-rule="evenodd" d="M68.0908 23.4469V19.8172L79.2592 17.1555L80.8203 17.6395V38.2074C80.8203 40.9498 81.1306 42.9662 81.751 44.2568C82.3715 45.5473 83.5624 46.1926 85.3237 46.1926C86.2844 46.1926 87.2652 46.0615 88.2659 45.7993C89.2667 45.5372 90.0272 45.1642 90.5476 44.6802V25.9876L86.8248 23.9308V19.8172L99.074 17.1555L100.695 17.6395V47.1605H104.058V50.3061C103.377 50.7901 102.136 51.1934 100.335 51.516C98.5336 51.8386 97.0125 52 95.7715 52C94.5306 52 93.5198 51.7277 92.7392 51.1833C91.9587 50.6388 91.5684 49.8222 91.5684 48.7333V47.5839C90.6076 48.7535 89.1466 49.7819 87.1851 50.6691C85.2236 51.5563 83.4623 52 81.9011 52C77.778 52 74.9059 51.0119 73.2847 49.0358C71.6635 47.0596 70.8529 43.914 70.8529 39.5987V25.5037L68.0908 23.4469Z" fill="#111111"/>
<path id="letter-e" fill-rule="evenodd" clip-rule="evenodd" d="M132.68 18.2418C129.927 16.543 126.378 16.1589 122.032 17.0896C118.625 17.8191 115.751 19.2283 113.409 21.3173C111.067 23.4062 109.439 25.9709 108.525 29.0114C107.612 32.052 107.521 35.3079 108.253 38.7794C109.335 43.9076 111.632 47.5696 115.145 49.7655C118.657 51.9613 123.095 52.4849 128.459 51.3362C130.809 50.8331 133.189 49.942 135.599 48.663C138.01 47.384 139.841 45.9301 141.094 44.3013L138.805 41.0189C136.143 42.9495 133.246 44.2502 130.114 44.921C127.294 45.5247 124.958 45.1181 123.104 43.701C121.25 42.2839 119.824 39.8887 118.825 36.5154L138.795 32.2391C138.719 30.5236 138.498 28.798 138.132 27.0623C137.25 22.8808 135.432 19.9407 132.68 18.2418ZM119.629 31.8136C118.831 25.5112 120.214 21.9786 123.777 21.2156C126.87 20.5531 128.816 22.1154 129.615 25.9024C129.823 26.8887 129.999 28.1086 130.142 29.5622L119.629 31.8136Z" fill="#111111"/>
<path fill-rule="evenodd" clip-rule="evenodd" d="M163.322 17.1555C165.003 17.1555 166.835 17.2866 168.816 17.5487C170.798 17.8109 172.229 18.1839 173.109 18.6679V28.0444H167.765L165.424 22.479C164.623 21.995 163.342 21.753 161.581 21.753C159.299 21.753 157.608 22.8923 156.507 25.1709C155.406 27.4496 154.856 30.3028 154.856 33.7308C154.856 37.4815 155.676 40.486 157.318 42.7444C158.959 45.0029 161.321 46.1321 164.403 46.1321C165.884 46.1321 167.405 45.9506 168.966 45.5876C170.527 45.2247 171.748 44.7205 172.629 44.0753L174.19 47.7654C172.629 49.1366 170.678 50.1851 168.336 50.9111C165.994 51.637 163.342 52 160.38 52C157.057 52 154.165 51.3144 151.703 49.9432C149.241 48.572 147.36 46.6362 146.059 44.1358C144.758 41.6353 144.108 38.7317 144.108 35.4247C144.108 31.795 144.918 28.5989 146.539 25.8364C148.161 23.0738 150.432 20.9364 153.355 19.424C156.277 17.9117 159.599 17.1555 163.322 17.1555Z" fill="#111111"/>
<path fill-rule="evenodd" clip-rule="evenodd" d="M181.095 46.2531V11.2272L176.412 9.10988V4.9358L189.682 3L191.483 3.78642V30.1617L191.123 34.3358L200.67 23.9914L195.266 23.3864V18.1235H214V23.3864L208.056 23.9309L200.97 30.7667L210.998 46.4951L214 47.1V51.1531H196.647V47.1L199.109 46.2531L194.185 36.9975L191.183 40.4457L191.423 42.8654V46.3741L194.906 47.1605V51.1531H177.192V47.1605L181.095 46.2531Z" fill="#111111"/>
<path d="M224.68 42.74C225.92 42.74 226.84 43.08 227.44 43.76C228.08 44.44 228.4 45.32 228.4 46.4C228.4 47.64 227.94 48.66 227.02 49.46C226.14 50.26 225.14 50.66 224.02 50.66C223.02 50.66 222.14 50.34 221.38 49.7C220.66 49.02 220.3 48.14 220.3 47.06C220.3 45.86 220.76 44.84 221.68 44C222.6 43.16 223.6 42.74 224.68 42.74ZM241.224 1.82C242.464 1.82 243.384 2.16 243.984 2.84C244.624 3.52 244.944 4.4 244.944 5.48C244.944 6.72 244.484 7.74 243.564 8.54C242.684 9.34 241.684 9.74 240.564 9.74C239.564 9.74 238.684 9.42 237.924 8.78C237.204 8.1 236.844 7.22 236.844 6.14C236.844 4.94 237.304 3.92 238.224 3.08C239.144 2.24 240.144 1.82 241.224 1.82ZM244.464 17.24V46.88L249.204 47.48V50H234.084V47.48L239.064 46.88V22.88L234.984 20.78V18.92L243.144 16.64L244.464 17.24ZM265.584 16.22C268.744 16.22 271.404 16.96 273.564 18.44C275.764 19.88 277.384 21.88 278.424 24.44C279.504 26.96 280.044 29.82 280.044 33.02C280.044 36.46 279.364 39.52 278.004 42.2C276.644 44.88 274.784 46.98 272.424 48.5C270.104 49.98 267.544 50.72 264.744 50.72C261.344 50.72 258.524 49.94 256.284 48.38C254.084 46.78 252.464 44.68 251.424 42.08C250.384 39.44 249.864 36.52 249.864 33.32C249.864 29.88 250.584 26.86 252.024 24.26C253.464 21.66 255.384 19.68 257.784 18.32C260.224 16.92 262.824 16.22 265.584 16.22ZM264.864 19.34C258.864 19.34 255.864 23.78 255.864 32.66C255.864 36.82 256.664 40.32 258.264 43.16C259.904 46 262.224 47.42 265.224 47.42C268.344 47.42 270.584 46.26 271.944 43.94C273.344 41.58 274.044 38.1 274.044 33.5C274.044 29.26 273.284 25.84 271.764 23.24C270.244 20.64 267.944 19.34 264.864 19.34Z" fill="#111111"/>
</g>
<defs>
<clipPath id="clip0_164_38">
<rect width="283" height="55" fill="white"/>
</clipPath>
</defs>
</svg>
