<svg width="283" height="50" viewBox="0 0 283 50" fill="none" xmlns="http://www.w3.org/2000/svg">
<g clip-path="url(#clip0_0_99)">
<path fill-rule="evenodd" clip-rule="evenodd" d="M0 6.56543V2.45185L12.3692 1.06049L14.0505 1.54444V17.0309C16.1721 15.7807 18.734 15.1556 21.7363 15.1556C26.2597 15.1556 29.7722 16.5973 32.2741 19.4809C34.776 22.3644 36.0269 26.3066 36.0269 31.3074C36.0269 34.7757 35.2163 37.9315 33.5951 40.7747C31.9739 43.6179 29.7523 45.8662 26.9301 47.5198C24.108 49.1733 20.9757 50 17.5331 50C14.9712 50 12.2892 49.7479 9.48709 49.2438C6.68498 48.7397 4.74355 48.165 3.66274 47.5198V8.25926L0 6.56543ZM14.0505 43.2247C14.4508 43.991 15.0613 44.5959 15.8819 45.0395C16.7025 45.4831 17.6132 45.7049 18.6139 45.7049C21.0558 45.7049 22.8271 44.3842 23.9279 41.7426C25.0287 39.101 25.5791 35.8041 25.5791 31.8519C25.5791 28.6658 24.8686 25.9436 23.4475 23.6852C22.0265 21.4267 20.1151 20.2975 17.7132 20.2975C16.2722 20.2975 15.0513 20.4992 14.0505 20.9025V43.2247ZM44.6734 44.3741V24.9556L40.7104 22.1123V18.4222L51.5786 15.1556L53.6801 15.7V21.4469C53.9603 20.358 54.5708 19.3296 55.5115 18.3617C56.4522 17.3938 57.523 16.6175 58.7239 16.0327C59.9248 15.4479 61.0456 15.1556 62.0864 15.1556C63.7277 15.1556 64.7884 15.2765 65.2688 15.5185V24.8346C64.8285 24.3909 64.0779 24.0481 63.0171 23.8062C61.9563 23.5642 61.0456 23.4432 60.2851 23.4432C59.1642 23.4432 58.1135 23.5541 57.1327 23.7759C56.152 23.9977 55.4615 24.2498 55.0612 24.5321V44.1321L61.9063 45.1605V49.1531H41.0707V45.1605L44.6734 44.3741ZM68.0909 21.4469V17.8173L79.2593 15.1556L80.8204 15.6395V36.2074C80.8204 38.9498 81.1307 40.9662 81.7511 42.2568C82.3716 43.5473 83.5625 44.1926 85.3238 44.1926C86.2845 44.1926 87.2652 44.0615 88.266 43.7994C89.2668 43.5372 90.0273 43.1642 90.5477 42.6802V23.9877L86.8249 21.9309V17.8173L99.0741 15.1556L100.695 15.6395V45.1605H104.058V48.3062C103.377 48.7901 102.136 49.1934 100.335 49.516C98.5337 49.8387 97.0125 50 95.7716 50C94.5307 50 93.5199 49.7278 92.7393 49.1833C91.9588 48.6389 91.5685 47.8222 91.5685 46.7333V45.584C90.6077 46.7535 89.1467 47.7819 87.1852 48.6691C85.2237 49.5564 83.4624 50 81.9012 50C77.7781 50 74.906 49.0119 73.2848 47.0358C71.6636 45.0597 70.853 41.914 70.853 37.5988V23.5037L68.0909 21.4469ZM122.032 15.0898C126.378 14.159 129.928 14.5431 132.68 16.242C135.433 17.9408 137.25 20.8809 138.132 25.0624C138.498 26.7982 138.719 28.5237 138.795 30.2393L118.825 34.5156C119.824 37.8889 121.25 40.284 123.104 41.7011C124.958 43.1182 127.295 43.5249 130.114 42.9212C133.246 42.2504 136.143 40.9496 138.805 39.019L141.094 42.3015C139.842 43.9303 138.01 45.3841 135.599 46.6632C133.189 47.9422 130.809 48.8332 128.459 49.3363C123.095 50.485 118.657 49.9615 115.145 47.7656C111.633 45.5698 109.335 41.9078 108.254 36.7795C107.521 33.3081 107.612 30.0521 108.525 27.0116C109.439 23.971 111.067 21.4063 113.409 19.3174C115.751 17.2285 118.625 15.8193 122.032 15.0898ZM123.777 19.2157C120.214 19.9787 118.831 23.5114 119.629 29.8137L130.142 27.5624C129.999 26.1087 129.823 24.8888 129.615 23.9026C128.816 20.1156 126.87 18.5533 123.777 19.2157ZM163.322 15.1556C165.003 15.1556 166.835 15.2866 168.816 15.5488C170.798 15.8109 172.229 16.1839 173.109 16.6679V26.0444H167.765L165.424 20.479C164.623 19.9951 163.342 19.7531 161.581 19.7531C159.299 19.7531 157.608 20.8924 156.507 23.171C155.406 25.4496 154.856 28.3029 154.856 31.7309C154.856 35.4815 155.676 38.486 157.318 40.7444C158.959 43.0029 161.321 44.1321 164.403 44.1321C165.884 44.1321 167.405 43.9506 168.966 43.5877C170.528 43.2247 171.748 42.7206 172.629 42.0753L174.19 45.7654C172.629 47.1366 170.678 48.1852 168.336 48.9111C165.994 49.637 163.342 50 160.38 50C157.057 50 154.165 49.3144 151.703 47.9432C149.242 46.572 147.36 44.6362 146.059 42.1358C144.758 39.6354 144.108 36.7317 144.108 33.4247C144.108 29.795 144.918 26.599 146.54 23.8364C148.161 21.0739 150.432 18.9364 153.355 17.4241C156.277 15.9117 159.599 15.1556 163.322 15.1556ZM181.095 44.2531V9.22716L176.412 7.10988V2.9358L189.682 1L191.483 1.78642V28.1617L191.123 32.3358L200.67 21.9914L195.266 21.3864V16.1235H214V21.3864L208.056 21.9309L200.97 28.7667L210.998 44.4951L214 45.1V49.1531H196.647V45.1L199.109 44.2531L194.185 34.9975L191.183 38.4457L191.423 40.8654V44.3741L194.906 45.1605V49.1531H177.192V45.1605L181.095 44.2531Z" fill="#111111"/>
<path d="M224.68 40.74C225.92 40.74 226.84 41.08 227.44 41.76C228.08 42.44 228.4 43.32 228.4 44.4C228.4 45.64 227.94 46.66 227.02 47.46C226.14 48.26 225.14 48.66 224.02 48.66C223.02 48.66 222.14 48.34 221.38 47.7C220.66 47.02 220.3 46.14 220.3 45.06C220.3 43.86 220.76 42.84 221.68 42C222.6 41.16 223.6 40.74 224.68 40.74ZM241.224 -0.180002C242.464 -0.180002 243.384 0.159998 243.984 0.839999C244.624 1.52 244.944 2.4 244.944 3.48C244.944 4.72 244.484 5.74 243.564 6.54C242.684 7.34 241.684 7.74 240.564 7.74C239.564 7.74 238.684 7.42 237.924 6.78C237.204 6.1 236.844 5.22 236.844 4.14C236.844 2.94 237.304 1.92 238.224 1.08C239.144 0.239997 240.144 -0.180002 241.224 -0.180002ZM244.464 15.24V44.88L249.204 45.48V48H234.084V45.48L239.064 44.88V20.88L234.984 18.78V16.92L243.144 14.64L244.464 15.24ZM265.584 14.22C268.744 14.22 271.404 14.96 273.564 16.44C275.764 17.88 277.384 19.88 278.424 22.44C279.504 24.96 280.044 27.82 280.044 31.02C280.044 34.46 279.364 37.52 278.004 40.2C276.644 42.88 274.784 44.98 272.424 46.5C270.104 47.98 267.544 48.72 264.744 48.72C261.344 48.72 258.524 47.94 256.284 46.38C254.084 44.78 252.464 42.68 251.424 40.08C250.384 37.44 249.864 34.52 249.864 31.32C249.864 27.88 250.584 24.86 252.024 22.26C253.464 19.66 255.384 17.68 257.784 16.32C260.224 14.92 262.824 14.22 265.584 14.22ZM264.864 17.34C258.864 17.34 255.864 21.78 255.864 30.66C255.864 34.82 256.664 38.32 258.264 41.16C259.904 44 262.224 45.42 265.224 45.42C268.344 45.42 270.584 44.26 271.944 41.94C273.344 39.58 274.044 36.1 274.044 31.5C274.044 27.26 273.284 23.84 271.764 21.24C270.244 18.64 267.944 17.34 264.864 17.34Z" fill="#111111"/>
</g>
<defs>
<clipPath id="clip0_0_99">
<rect width="283" height="50" fill="white"/>
</clipPath>
</defs>
</svg>
